<svg width="671" height="190" viewBox="0 0 671 190" fill="none" xmlns="http://www.w3.org/2000/svg">
<path d="M20.78 40.55C18.1033 40.55 15.5917 40.055 13.245 39.065C10.935 38.0383 8.9 36.6267 7.14 34.83C5.41667 33.0333 4.06 30.9433 3.07 28.56C2.08 26.1767 1.585 23.61 1.585 20.86C1.585 18.11 2.08 15.5617 3.07 13.215C4.06 10.8317 5.435 8.74166 7.195 6.945C8.955 5.14833 11.0083 3.755 13.355 2.765C15.7383 1.775 18.3233 1.28 21.11 1.28C24.1533 1.28 26.9583 1.86666 29.525 3.04C32.0917 4.21333 34.2367 5.9 35.96 8.1L32.385 11.675C31.175 9.915 29.58 8.57667 27.6 7.66C25.62 6.70667 23.4567 6.23 21.11 6.23C18.3233 6.23 15.8483 6.85333 13.685 8.1C11.5583 9.34667 9.89 11.07 8.68 13.27C7.50667 15.47 6.92 18 6.92 20.86C6.92 23.7567 7.525 26.305 8.735 28.505C9.945 30.705 11.5767 32.4283 13.63 33.675C15.6833 34.9217 18.03 35.545 20.67 35.545C23.3467 35.545 25.6567 35.0317 27.6 34.005C29.58 32.9783 31.1017 31.475 32.165 29.495C33.2283 27.4783 33.76 25.0217 33.76 22.125L36.895 24.38H20.395V19.65H39.095V20.42C39.095 24.8567 38.3067 28.5783 36.73 31.585C35.19 34.555 33.0267 36.7917 30.24 38.295C27.49 39.7983 24.3367 40.55 20.78 40.55ZM57.2691 40.55C54.6657 40.55 52.3191 39.9633 50.2291 38.79C48.1391 37.58 46.4891 35.9483 45.2791 33.895C44.0691 31.8417 43.4641 29.5133 43.4641 26.91C43.4641 24.3433 44.0507 22.0333 45.2241 19.98C46.4341 17.9267 48.0474 16.3133 50.0641 15.14C52.1174 13.93 54.4091 13.325 56.9391 13.325C59.3591 13.325 61.4857 13.875 63.3191 14.975C65.1891 16.075 66.6374 17.5967 67.6641 19.54C68.7274 21.4833 69.2591 23.6833 69.2591 26.14C69.2591 26.5067 69.2407 26.91 69.2041 27.35C69.1674 27.7533 69.0941 28.23 68.9841 28.78H46.9291V24.655H66.3441L64.5291 26.25C64.5291 24.49 64.2174 23.005 63.5941 21.795C62.9707 20.5483 62.0907 19.595 60.9541 18.935C59.8174 18.2383 58.4424 17.89 56.8291 17.89C55.1424 17.89 53.6574 18.2567 52.3741 18.99C51.0907 19.7233 50.1007 20.75 49.4041 22.07C48.7074 23.39 48.3591 24.9483 48.3591 26.745C48.3591 28.5783 48.7257 30.1917 49.4591 31.585C50.1924 32.9417 51.2374 34.005 52.5941 34.775C53.9507 35.5083 55.5091 35.875 57.2691 35.875C58.7357 35.875 60.0741 35.6183 61.2841 35.105C62.5307 34.5917 63.5941 33.8217 64.4741 32.795L67.6641 36.04C66.4174 37.5067 64.8774 38.625 63.0441 39.395C61.2474 40.165 59.3224 40.55 57.2691 40.55ZM77.8657 40V2.93H82.8157V40H77.8657ZM71.4307 18.385V13.875H89.2507V18.385H71.4307ZM117.475 40.55C114.908 40.55 112.598 39.945 110.545 38.735C108.492 37.525 106.86 35.8933 105.65 33.84C104.44 31.75 103.835 29.4217 103.835 26.855C103.835 24.325 104.44 22.0517 105.65 20.035C106.86 17.9817 108.492 16.35 110.545 15.14C112.598 13.93 114.908 13.325 117.475 13.325C120.005 13.325 122.297 13.93 124.35 15.14C126.44 16.3133 128.09 17.9267 129.3 19.98C130.51 22.0333 131.115 24.325 131.115 26.855C131.115 29.4217 130.51 31.75 129.3 33.84C128.09 35.8933 126.44 37.525 124.35 38.735C122.297 39.945 120.005 40.55 117.475 40.55ZM117.475 35.765C119.125 35.765 120.592 35.38 121.875 34.61C123.158 33.84 124.167 32.795 124.9 31.475C125.633 30.1183 126 28.5783 126 26.855C126 25.1683 125.615 23.665 124.845 22.345C124.112 21.025 123.103 19.9983 121.82 19.265C120.573 18.495 119.125 18.11 117.475 18.11C115.825 18.11 114.358 18.495 113.075 19.265C111.792 19.9983 110.783 21.025 110.05 22.345C109.317 23.665 108.95 25.1683 108.95 26.855C108.95 28.5783 109.317 30.1183 110.05 31.475C110.783 32.795 111.792 33.84 113.075 34.61C114.358 35.38 115.825 35.765 117.475 35.765ZM136.692 40V13.875H141.643V40H136.692ZM141.643 25.095L139.773 24.27C139.773 20.9333 140.543 18.275 142.083 16.295C143.623 14.315 145.841 13.325 148.738 13.325C150.058 13.325 151.249 13.5633 152.313 14.04C153.376 14.48 154.366 15.2317 155.283 16.295L152.038 19.65C151.488 19.0633 150.883 18.6417 150.223 18.385C149.563 18.1283 148.793 18 147.913 18C146.079 18 144.576 18.5867 143.403 19.76C142.229 20.9333 141.643 22.7117 141.643 25.095ZM168.743 51.495C166.067 51.495 163.683 51 161.593 50.01C159.54 49.02 157.89 47.6267 156.643 45.83L159.833 42.585C160.897 43.9417 162.162 44.9683 163.628 45.665C165.095 46.3983 166.837 46.765 168.853 46.765C171.53 46.765 173.638 46.05 175.178 44.62C176.755 43.2267 177.543 41.3383 177.543 38.955V32.465L178.423 26.58L177.543 20.75V13.875H182.493V38.955C182.493 41.4483 181.907 43.63 180.733 45.5C179.597 47.37 177.983 48.8367 175.893 49.9C173.84 50.9633 171.457 51.495 168.743 51.495ZM168.743 39.56C166.36 39.56 164.215 38.9917 162.308 37.855C160.438 36.7183 158.953 35.16 157.853 33.18C156.753 31.1633 156.203 28.9083 156.203 26.415C156.203 23.9217 156.753 21.7033 157.853 19.76C158.953 17.78 160.438 16.2217 162.308 15.085C164.215 13.9117 166.36 13.325 168.743 13.325C170.797 13.325 172.612 13.7283 174.188 14.535C175.765 15.3417 177.012 16.4783 177.928 17.945C178.882 19.375 179.395 21.0617 179.468 23.005V29.935C179.358 31.8417 178.827 33.5283 177.873 34.995C176.957 36.425 175.71 37.5433 174.133 38.35C172.557 39.1567 170.76 39.56 168.743 39.56ZM169.733 34.885C171.347 34.885 172.758 34.5367 173.968 33.84C175.215 33.1433 176.168 32.1717 176.828 30.925C177.488 29.6417 177.818 28.1567 177.818 26.47C177.818 24.7833 177.47 23.3167 176.773 22.07C176.113 20.7867 175.178 19.7967 173.968 19.1C172.758 18.3667 171.328 18 169.678 18C168.028 18 166.58 18.3667 165.333 19.1C164.087 19.7967 163.097 20.7867 162.363 22.07C161.667 23.3167 161.318 24.765 161.318 26.415C161.318 28.065 161.667 29.5317 162.363 30.815C163.097 32.0983 164.087 33.1067 165.333 33.84C166.617 34.5367 168.083 34.885 169.733 34.885ZM200.869 40.55C198.486 40.55 196.322 39.9633 194.379 38.79C192.436 37.58 190.896 35.9483 189.759 33.895C188.659 31.8417 188.109 29.5317 188.109 26.965C188.109 24.3983 188.659 22.0883 189.759 20.035C190.896 17.9817 192.417 16.35 194.324 15.14C196.267 13.93 198.449 13.325 200.869 13.325C202.849 13.325 204.609 13.7467 206.149 14.59C207.726 15.3967 208.991 16.5333 209.944 18C210.897 19.43 211.429 21.0983 211.539 23.005V30.87C211.429 32.74 210.897 34.4083 209.944 35.875C209.027 37.3417 207.781 38.4967 206.204 39.34C204.664 40.1467 202.886 40.55 200.869 40.55ZM201.694 35.875C204.151 35.875 206.131 35.05 207.634 33.4C209.137 31.7133 209.889 29.5683 209.889 26.965C209.889 25.1683 209.541 23.61 208.844 22.29C208.184 20.9333 207.231 19.8883 205.984 19.155C204.737 18.385 203.289 18 201.639 18C199.989 18 198.522 18.385 197.239 19.155C195.992 19.925 195.002 20.9883 194.269 22.345C193.572 23.665 193.224 25.1867 193.224 26.91C193.224 28.67 193.572 30.2283 194.269 31.585C195.002 32.905 196.011 33.95 197.294 34.72C198.577 35.49 200.044 35.875 201.694 35.875ZM209.559 40V32.96L210.494 26.58L209.559 20.255V13.875H214.564V40H209.559ZM240.251 40V24.765C240.251 22.785 239.627 21.1533 238.381 19.87C237.134 18.5867 235.521 17.945 233.541 17.945C232.221 17.945 231.047 18.2383 230.021 18.825C228.994 19.4117 228.187 20.2183 227.601 21.245C227.014 22.2717 226.721 23.445 226.721 24.765L224.686 23.61C224.686 21.63 225.126 19.87 226.006 18.33C226.886 16.79 228.114 15.58 229.691 14.7C231.267 13.7833 233.046 13.325 235.026 13.325C237.006 13.325 238.747 13.82 240.251 14.81C241.791 15.8 243.001 17.1017 243.881 18.715C244.761 20.2917 245.201 21.9783 245.201 23.775V40H240.251ZM221.771 40V13.875H226.721V40H221.771ZM251.957 40V13.875H256.907V40H251.957ZM254.432 8.65C253.516 8.65 252.764 8.35666 252.177 7.77C251.591 7.14666 251.297 6.37666 251.297 5.46C251.297 4.58 251.591 3.84667 252.177 3.26C252.764 2.63666 253.516 2.325 254.432 2.325C255.349 2.325 256.101 2.63666 256.687 3.26C257.274 3.84667 257.567 4.58 257.567 5.46C257.567 6.37666 257.274 7.14666 256.687 7.77C256.101 8.35666 255.349 8.65 254.432 8.65ZM262.112 37.305L277.622 16.57H283.452L267.942 37.305H262.112ZM262.112 40V37.305L266.512 35.49H283.122V40H262.112ZM263.047 18.385V13.875H283.452V16.57L278.887 18.385H263.047ZM300.418 40.55C297.815 40.55 295.468 39.9633 293.378 38.79C291.288 37.58 289.638 35.9483 288.428 33.895C287.218 31.8417 286.613 29.5133 286.613 26.91C286.613 24.3433 287.2 22.0333 288.373 19.98C289.583 17.9267 291.197 16.3133 293.213 15.14C295.267 13.93 297.558 13.325 300.088 13.325C302.508 13.325 304.635 13.875 306.468 14.975C308.338 16.075 309.787 17.5967 310.813 19.54C311.877 21.4833 312.408 23.6833 312.408 26.14C312.408 26.5067 312.39 26.91 312.353 27.35C312.317 27.7533 312.243 28.23 312.133 28.78H290.078V24.655H309.493L307.678 26.25C307.678 24.49 307.367 23.005 306.743 21.795C306.12 20.5483 305.24 19.595 304.103 18.935C302.967 18.2383 301.592 17.89 299.978 17.89C298.292 17.89 296.807 18.2567 295.523 18.99C294.24 19.7233 293.25 20.75 292.553 22.07C291.857 23.39 291.508 24.9483 291.508 26.745C291.508 28.5783 291.875 30.1917 292.608 31.585C293.342 32.9417 294.387 34.005 295.743 34.775C297.1 35.5083 298.658 35.875 300.418 35.875C301.885 35.875 303.223 35.6183 304.433 35.105C305.68 34.5917 306.743 33.8217 307.623 32.795L310.813 36.04C309.567 37.5067 308.027 38.625 306.193 39.395C304.397 40.165 302.472 40.55 300.418 40.55ZM328.861 40.55C326.441 40.55 324.277 39.9633 322.371 38.79C320.464 37.58 318.942 35.9483 317.806 33.895C316.706 31.8417 316.156 29.5317 316.156 26.965C316.156 24.3983 316.706 22.0883 317.806 20.035C318.942 17.9817 320.464 16.35 322.371 15.14C324.277 13.93 326.441 13.325 328.861 13.325C330.804 13.325 332.564 13.7467 334.141 14.59C335.717 15.3967 336.982 16.5333 337.936 18C338.926 19.43 339.476 21.0983 339.586 23.005V30.87C339.476 32.74 338.944 34.4083 337.991 35.875C337.037 37.3417 335.772 38.4967 334.196 39.34C332.619 40.1467 330.841 40.55 328.861 40.55ZM329.686 35.875C331.336 35.875 332.766 35.49 333.976 34.72C335.222 33.95 336.194 32.905 336.891 31.585C337.587 30.2283 337.936 28.6883 337.936 26.965C337.936 25.1683 337.569 23.61 336.836 22.29C336.139 20.97 335.167 19.925 333.921 19.155C332.711 18.385 331.281 18 329.631 18C327.981 18 326.532 18.385 325.286 19.155C324.039 19.925 323.049 20.9883 322.316 22.345C321.619 23.665 321.271 25.1867 321.271 26.91C321.271 28.67 321.619 30.2283 322.316 31.585C323.049 32.905 324.039 33.95 325.286 34.72C326.569 35.49 328.036 35.875 329.686 35.875ZM342.611 40H337.606V32.96L338.541 26.58L337.606 20.255V0.729997H342.611V40ZM368.738 40L358.398 13.875H363.568L371.048 34.225H369.398L376.823 13.875H379.683L387.108 34.225H385.458L392.938 13.875H398.108L387.823 40H384.908L377.373 20.255H379.188L371.598 40H368.738ZM402.133 40V13.875H407.083V40H402.133ZM404.608 8.65C403.692 8.65 402.94 8.35666 402.353 7.77C401.767 7.14666 401.473 6.37666 401.473 5.46C401.473 4.58 401.767 3.84667 402.353 3.26C402.94 2.63666 403.692 2.325 404.608 2.325C405.525 2.325 406.277 2.63666 406.863 3.26C407.45 3.84667 407.743 4.58 407.743 5.46C407.743 6.37666 407.45 7.14666 406.863 7.77C406.277 8.35666 405.525 8.65 404.608 8.65ZM418.393 40V2.93H423.343V40H418.393ZM411.958 18.385V13.875H429.778V18.385H411.958ZM453.107 40V24.765C453.107 22.785 452.484 21.1533 451.237 19.87C449.99 18.5867 448.377 17.945 446.397 17.945C445.077 17.945 443.904 18.2383 442.877 18.825C441.85 19.4117 441.044 20.2183 440.457 21.245C439.87 22.2717 439.577 23.445 439.577 24.765L437.542 23.61C437.542 21.63 437.982 19.87 438.862 18.33C439.742 16.79 440.97 15.58 442.547 14.7C444.124 13.7833 445.902 13.325 447.882 13.325C449.862 13.325 451.604 13.765 453.107 14.645C454.647 15.525 455.857 16.7533 456.737 18.33C457.617 19.9067 458.057 21.7217 458.057 23.775V40H453.107ZM434.627 40V0.729997H439.577V40H434.627ZM293.26 97.34V92.665H311.355V97.34H293.26ZM340.193 109V71.93H345.363V109H340.193ZM327.213 75.56V70.83H358.288V75.56H327.213ZM382.048 109V93.765C382.048 91.785 381.424 90.1533 380.178 88.87C378.931 87.5867 377.318 86.945 375.338 86.945C374.018 86.945 372.844 87.2383 371.818 87.825C370.791 88.4117 369.984 89.2183 369.398 90.245C368.811 91.2717 368.518 92.445 368.518 93.765L366.483 92.61C366.483 90.63 366.923 88.87 367.803 87.33C368.683 85.79 369.911 84.58 371.488 83.7C373.064 82.7833 374.843 82.325 376.823 82.325C378.803 82.325 380.544 82.765 382.048 83.645C383.588 84.525 384.798 85.7533 385.678 87.33C386.558 88.9067 386.998 90.7217 386.998 92.775V109H382.048ZM363.567 109V69.73H368.518V109H363.567ZM405.799 109.55C403.196 109.55 400.849 108.963 398.759 107.79C396.669 106.58 395.019 104.948 393.809 102.895C392.599 100.842 391.994 98.5133 391.994 95.91C391.994 93.3433 392.581 91.0333 393.754 88.98C394.964 86.9267 396.578 85.3133 398.594 84.14C400.648 82.93 402.939 82.325 405.469 82.325C407.889 82.325 410.016 82.875 411.849 83.975C413.719 85.075 415.168 86.5967 416.194 88.54C417.258 90.4833 417.789 92.6833 417.789 95.14C417.789 95.5067 417.771 95.91 417.734 96.35C417.698 96.7533 417.624 97.23 417.514 97.78H395.459V93.655H414.874L413.059 95.25C413.059 93.49 412.748 92.005 412.124 90.795C411.501 89.5483 410.621 88.595 409.484 87.935C408.348 87.2383 406.973 86.89 405.359 86.89C403.673 86.89 402.188 87.2567 400.904 87.99C399.621 88.7233 398.631 89.75 397.934 91.07C397.238 92.39 396.889 93.9483 396.889 95.745C396.889 97.5783 397.256 99.1917 397.989 100.585C398.723 101.942 399.768 103.005 401.124 103.775C402.481 104.508 404.039 104.875 405.799 104.875C407.266 104.875 408.604 104.618 409.814 104.105C411.061 103.592 412.124 102.822 413.004 101.795L416.194 105.04C414.948 106.507 413.408 107.625 411.574 108.395C409.778 109.165 407.853 109.55 405.799 109.55ZM445.737 109.55C443.354 109.55 441.19 108.963 439.247 107.79C437.304 106.58 435.764 104.948 434.627 102.895C433.527 100.842 432.977 98.5317 432.977 95.965C432.977 93.3983 433.527 91.0883 434.627 89.035C435.764 86.9817 437.285 85.35 439.192 84.14C441.135 82.93 443.317 82.325 445.737 82.325C447.717 82.325 449.477 82.7467 451.017 83.59C452.594 84.3967 453.859 85.5333 454.812 87C455.765 88.43 456.297 90.0983 456.407 92.005V99.87C456.297 101.74 455.765 103.408 454.812 104.875C453.895 106.342 452.649 107.497 451.072 108.34C449.532 109.147 447.754 109.55 445.737 109.55ZM446.562 104.875C449.019 104.875 450.999 104.05 452.502 102.4C454.005 100.713 454.757 98.5683 454.757 95.965C454.757 94.1683 454.409 92.61 453.712 91.29C453.052 89.9333 452.099 88.8883 450.852 88.155C449.605 87.385 448.157 87 446.507 87C444.857 87 443.39 87.385 442.107 88.155C440.86 88.925 439.87 89.9883 439.137 91.345C438.44 92.665 438.092 94.1867 438.092 95.91C438.092 97.67 438.44 99.2283 439.137 100.585C439.87 101.905 440.879 102.95 442.162 103.72C443.445 104.49 444.912 104.875 446.562 104.875ZM454.427 109V101.96L455.362 95.58L454.427 89.255V82.875H459.432V109H454.427ZM466.639 109V69.73H471.589V109H466.639ZM478.831 109V69.73H483.781V109H478.831ZM491.024 97.34V92.665H509.119V97.34H491.024ZM516.43 109V82.875H521.38V109H516.43ZM518.905 77.65C517.988 77.65 517.237 77.3567 516.65 76.77C516.063 76.1467 515.77 75.3767 515.77 74.46C515.77 73.58 516.063 72.8467 516.65 72.26C517.237 71.6367 517.988 71.325 518.905 71.325C519.822 71.325 520.573 71.6367 521.16 72.26C521.747 72.8467 522.04 73.58 522.04 74.46C522.04 75.3767 521.747 76.1467 521.16 76.77C520.573 77.3567 519.822 77.65 518.905 77.65ZM547.155 109V93.765C547.155 91.785 546.532 90.1533 545.285 88.87C544.038 87.5867 542.425 86.945 540.445 86.945C539.125 86.945 537.952 87.2383 536.925 87.825C535.898 88.4117 535.092 89.2183 534.505 90.245C533.918 91.2717 533.625 92.445 533.625 93.765L531.59 92.61C531.59 90.63 532.03 88.87 532.91 87.33C533.79 85.79 535.018 84.58 536.595 83.7C538.172 82.7833 539.95 82.325 541.93 82.325C543.91 82.325 545.652 82.82 547.155 83.81C548.695 84.8 549.905 86.1017 550.785 87.715C551.665 89.2917 552.105 90.9783 552.105 92.775V109H547.155ZM528.675 109V82.875H533.625V109H528.675ZM558.807 97.34V92.665H576.902V97.34H558.807ZM596.953 109.55C594.386 109.55 592.076 108.945 590.023 107.735C587.969 106.525 586.338 104.893 585.128 102.84C583.918 100.75 583.313 98.4217 583.313 95.855C583.313 93.325 583.918 91.0517 585.128 89.035C586.338 86.9817 587.969 85.35 590.023 84.14C592.076 82.93 594.386 82.325 596.953 82.325C599.483 82.325 601.774 82.93 603.828 84.14C605.918 85.3133 607.568 86.9267 608.778 88.98C609.988 91.0333 610.593 93.325 610.593 95.855C610.593 98.4217 609.988 100.75 608.778 102.84C607.568 104.893 605.918 106.525 603.828 107.735C601.774 108.945 599.483 109.55 596.953 109.55ZM596.953 104.765C598.603 104.765 600.069 104.38 601.353 103.61C602.636 102.84 603.644 101.795 604.378 100.475C605.111 99.1183 605.478 97.5783 605.478 95.855C605.478 94.1683 605.093 92.665 604.323 91.345C603.589 90.025 602.581 88.9983 601.298 88.265C600.051 87.495 598.603 87.11 596.953 87.11C595.303 87.11 593.836 87.495 592.553 88.265C591.269 88.9983 590.261 90.025 589.528 91.345C588.794 92.665 588.428 94.1683 588.428 95.855C588.428 97.5783 588.794 99.1183 589.528 100.475C590.261 101.795 591.269 102.84 592.553 103.61C593.836 104.38 595.303 104.765 596.953 104.765ZM634.65 109V93.765C634.65 91.785 634.027 90.1533 632.78 88.87C631.533 87.5867 629.92 86.945 627.94 86.945C626.62 86.945 625.447 87.2383 624.42 87.825C623.393 88.4117 622.587 89.2183 622 90.245C621.413 91.2717 621.12 92.445 621.12 93.765L619.085 92.61C619.085 90.63 619.525 88.87 620.405 87.33C621.285 85.79 622.513 84.58 624.09 83.7C625.667 82.7833 627.445 82.325 629.425 82.325C631.405 82.325 633.147 82.82 634.65 83.81C636.19 84.8 637.4 86.1017 638.28 87.715C639.16 89.2917 639.6 90.9783 639.6 92.775V109H634.65ZM616.17 109V82.875H621.12V109H616.17ZM658.402 109.55C655.799 109.55 653.452 108.963 651.362 107.79C649.272 106.58 647.622 104.948 646.412 102.895C645.202 100.842 644.597 98.5133 644.597 95.91C644.597 93.3433 645.184 91.0333 646.357 88.98C647.567 86.9267 649.18 85.3133 651.197 84.14C653.25 82.93 655.542 82.325 658.072 82.325C660.492 82.325 662.619 82.875 664.452 83.975C666.322 85.075 667.77 86.5967 668.797 88.54C669.86 90.4833 670.392 92.6833 670.392 95.14C670.392 95.5067 670.374 95.91 670.337 96.35C670.3 96.7533 670.227 97.23 670.117 97.78H648.062V93.655H667.477L665.662 95.25C665.662 93.49 665.35 92.005 664.727 90.795C664.104 89.5483 663.224 88.595 662.087 87.935C660.95 87.2383 659.575 86.89 657.962 86.89C656.275 86.89 654.79 87.2567 653.507 87.99C652.224 88.7233 651.234 89.75 650.537 91.07C649.84 92.39 649.492 93.9483 649.492 95.745C649.492 97.5783 649.859 99.1917 650.592 100.585C651.325 101.942 652.37 103.005 653.727 103.775C655.084 104.508 656.642 104.875 658.402 104.875C659.869 104.875 661.207 104.618 662.417 104.105C663.664 103.592 664.727 102.822 665.607 101.795L668.797 105.04C667.55 106.507 666.01 107.625 664.177 108.395C662.38 109.165 660.455 109.55 658.402 109.55ZM13.74 178.55C11.3567 178.55 9.19333 177.963 7.25 176.79C5.30667 175.58 3.76667 173.948 2.63 171.895C1.53 169.842 0.98 167.532 0.98 164.965C0.98 162.398 1.53 160.088 2.63 158.035C3.76667 155.982 5.28833 154.35 7.195 153.14C9.13833 151.93 11.32 151.325 13.74 151.325C15.72 151.325 17.48 151.747 19.02 152.59C20.5967 153.397 21.8617 154.533 22.815 156C23.7683 157.43 24.3 159.098 24.41 161.005V168.87C24.3 170.74 23.7683 172.408 22.815 173.875C21.8983 175.342 20.6517 176.497 19.075 177.34C17.535 178.147 15.7567 178.55 13.74 178.55ZM14.565 173.875C17.0217 173.875 19.0017 173.05 20.505 171.4C22.0083 169.713 22.76 167.568 22.76 164.965C22.76 163.168 22.4117 161.61 21.715 160.29C21.055 158.933 20.1017 157.888 18.855 157.155C17.6083 156.385 16.16 156 14.51 156C12.86 156 11.3933 156.385 10.11 157.155C8.86333 157.925 7.87333 158.988 7.14 160.345C6.44333 161.665 6.095 163.187 6.095 164.91C6.095 166.67 6.44333 168.228 7.14 169.585C7.87333 170.905 8.88167 171.95 10.165 172.72C11.4483 173.49 12.915 173.875 14.565 173.875ZM22.43 178V170.96L23.365 164.58L22.43 158.255V151.875H27.435V178H22.43ZM48.3917 178.55C46.4117 178.55 44.6151 178.147 43.0017 177.34C41.4251 176.497 40.1601 175.342 39.2067 173.875C38.2534 172.408 37.7217 170.74 37.6117 168.87V161.005C37.7217 159.098 38.2534 157.43 39.2067 156C40.1967 154.533 41.4801 153.397 43.0567 152.59C44.6701 151.747 46.4484 151.325 48.3917 151.325C50.7751 151.325 52.9201 151.93 54.8267 153.14C56.7701 154.35 58.2917 155.982 59.3917 158.035C60.4917 160.088 61.0417 162.398 61.0417 164.965C61.0417 167.532 60.4917 169.842 59.3917 171.895C58.2917 173.948 56.7701 175.58 54.8267 176.79C52.9201 177.963 50.7751 178.55 48.3917 178.55ZM47.5667 173.875C49.2167 173.875 50.6651 173.49 51.9117 172.72C53.1584 171.95 54.1484 170.905 54.8817 169.585C55.6151 168.228 55.9817 166.67 55.9817 164.91C55.9817 163.187 55.6151 161.647 54.8817 160.29C54.1484 158.933 53.1584 157.888 51.9117 157.155C50.6651 156.385 49.2351 156 47.6217 156C45.9717 156 44.5234 156.385 43.2767 157.155C42.0301 157.888 41.0584 158.933 40.3617 160.29C39.6651 161.647 39.3167 163.205 39.3167 164.965C39.3167 166.688 39.6467 168.228 40.3067 169.585C41.0034 170.905 41.9751 171.95 43.2217 172.72C44.5051 173.49 45.9534 173.875 47.5667 173.875ZM34.6417 188.945V151.875H39.5917V158.75L38.6567 165.075L39.5917 171.455V188.945H34.6417ZM80.4034 178.55C78.4234 178.55 76.6268 178.147 75.0134 177.34C73.4368 176.497 72.1718 175.342 71.2184 173.875C70.2651 172.408 69.7334 170.74 69.6234 168.87V161.005C69.7334 159.098 70.2651 157.43 71.2184 156C72.2084 154.533 73.4918 153.397 75.0684 152.59C76.6818 151.747 78.4601 151.325 80.4034 151.325C82.7868 151.325 84.9318 151.93 86.8384 153.14C88.7818 154.35 90.3034 155.982 91.4034 158.035C92.5034 160.088 93.0534 162.398 93.0534 164.965C93.0534 167.532 92.5034 169.842 91.4034 171.895C90.3034 173.948 88.7818 175.58 86.8384 176.79C84.9318 177.963 82.7868 178.55 80.4034 178.55ZM79.5784 173.875C81.2284 173.875 82.6768 173.49 83.9234 172.72C85.1701 171.95 86.1601 170.905 86.8934 169.585C87.6268 168.228 87.9934 166.67 87.9934 164.91C87.9934 163.187 87.6268 161.647 86.8934 160.29C86.1601 158.933 85.1701 157.888 83.9234 157.155C82.6768 156.385 81.2468 156 79.6334 156C77.9834 156 76.5351 156.385 75.2884 157.155C74.0418 157.888 73.0701 158.933 72.3734 160.29C71.6768 161.647 71.3284 163.205 71.3284 164.965C71.3284 166.688 71.6584 168.228 72.3184 169.585C73.0151 170.905 73.9868 171.95 75.2334 172.72C76.5168 173.49 77.9651 173.875 79.5784 173.875ZM66.6534 188.945V151.875H71.6034V158.75L70.6684 165.075L71.6034 171.455V188.945H66.6534ZM113.846 178V147.97C113.846 146.027 114.267 144.34 115.111 142.91C115.954 141.443 117.109 140.288 118.576 139.445C120.079 138.602 121.821 138.18 123.801 138.18C125.304 138.18 126.606 138.437 127.706 138.95C128.806 139.463 129.814 140.215 130.731 141.205L127.486 144.395C127.009 143.882 126.477 143.497 125.891 143.24C125.304 142.947 124.589 142.8 123.746 142.8C122.169 142.8 120.941 143.258 120.061 144.175C119.217 145.092 118.796 146.357 118.796 147.97V178H113.846ZM107.411 156.385V151.875H127.101V156.385H107.411ZM142.504 178.55C139.938 178.55 137.628 177.945 135.574 176.735C133.521 175.525 131.889 173.893 130.679 171.84C129.469 169.75 128.864 167.422 128.864 164.855C128.864 162.325 129.469 160.052 130.679 158.035C131.889 155.982 133.521 154.35 135.574 153.14C137.628 151.93 139.938 151.325 142.504 151.325C145.034 151.325 147.326 151.93 149.379 153.14C151.469 154.313 153.119 155.927 154.329 157.98C155.539 160.033 156.144 162.325 156.144 164.855C156.144 167.422 155.539 169.75 154.329 171.84C153.119 173.893 151.469 175.525 149.379 176.735C147.326 177.945 145.034 178.55 142.504 178.55ZM142.504 173.765C144.154 173.765 145.621 173.38 146.904 172.61C148.188 171.84 149.196 170.795 149.929 169.475C150.663 168.118 151.029 166.578 151.029 164.855C151.029 163.168 150.644 161.665 149.874 160.345C149.141 159.025 148.133 157.998 146.849 157.265C145.603 156.495 144.154 156.11 142.504 156.11C140.854 156.11 139.388 156.495 138.104 157.265C136.821 157.998 135.813 159.025 135.079 160.345C134.346 161.665 133.979 163.168 133.979 164.855C133.979 166.578 134.346 168.118 135.079 169.475C135.813 170.795 136.821 171.84 138.104 172.61C139.388 173.38 140.854 173.765 142.504 173.765ZM161.722 178V151.875H166.672V178H161.722ZM166.672 163.095L164.802 162.27C164.802 158.933 165.572 156.275 167.112 154.295C168.652 152.315 170.87 151.325 173.767 151.325C175.087 151.325 176.278 151.563 177.342 152.04C178.405 152.48 179.395 153.232 180.312 154.295L177.067 157.65C176.517 157.063 175.912 156.642 175.252 156.385C174.592 156.128 173.822 156 172.942 156C171.108 156 169.605 156.587 168.432 157.76C167.258 158.933 166.672 160.712 166.672 163.095ZM196.204 178V138.73H201.154V178H196.204ZM208.452 178V151.875H213.402V178H208.452ZM210.927 146.65C210.01 146.65 209.258 146.357 208.672 145.77C208.085 145.147 207.792 144.377 207.792 143.46C207.792 142.58 208.085 141.847 208.672 141.26C209.258 140.637 210.01 140.325 210.927 140.325C211.843 140.325 212.595 140.637 213.182 141.26C213.768 141.847 214.062 142.58 214.062 143.46C214.062 144.377 213.768 145.147 213.182 145.77C212.595 146.357 211.843 146.65 210.927 146.65ZM229.661 178L217.671 151.875H223.171L232.796 173.93H229.606L239.286 151.875H244.566L232.576 178H229.661ZM248.842 178V151.875H253.792V178H248.842ZM251.317 146.65C250.401 146.65 249.649 146.357 249.062 145.77C248.476 145.147 248.182 144.377 248.182 143.46C248.182 142.58 248.476 141.847 249.062 141.26C249.649 140.637 250.401 140.325 251.317 140.325C252.234 140.325 252.986 140.637 253.572 141.26C254.159 141.847 254.452 142.58 254.452 143.46C254.452 144.377 254.159 145.147 253.572 145.77C252.986 146.357 252.234 146.65 251.317 146.65ZM279.567 178V162.765C279.567 160.785 278.944 159.153 277.697 157.87C276.45 156.587 274.837 155.945 272.857 155.945C271.537 155.945 270.364 156.238 269.337 156.825C268.31 157.412 267.504 158.218 266.917 159.245C266.33 160.272 266.037 161.445 266.037 162.765L264.002 161.61C264.002 159.63 264.442 157.87 265.322 156.33C266.202 154.79 267.43 153.58 269.007 152.7C270.584 151.783 272.362 151.325 274.342 151.325C276.322 151.325 278.064 151.82 279.567 152.81C281.107 153.8 282.317 155.102 283.197 156.715C284.077 158.292 284.517 159.978 284.517 161.775V178H279.567ZM261.087 178V151.875H266.037V178H261.087ZM302.054 189.495C299.377 189.495 296.994 189 294.904 188.01C292.851 187.02 291.201 185.627 289.954 183.83L293.144 180.585C294.207 181.942 295.472 182.968 296.939 183.665C298.406 184.398 300.147 184.765 302.164 184.765C304.841 184.765 306.949 184.05 308.489 182.62C310.066 181.227 310.854 179.338 310.854 176.955V170.465L311.734 164.58L310.854 158.75V151.875H315.804V176.955C315.804 179.448 315.217 181.63 314.044 183.5C312.907 185.37 311.294 186.837 309.204 187.9C307.151 188.963 304.767 189.495 302.054 189.495ZM302.054 177.56C299.671 177.56 297.526 176.992 295.619 175.855C293.749 174.718 292.264 173.16 291.164 171.18C290.064 169.163 289.514 166.908 289.514 164.415C289.514 161.922 290.064 159.703 291.164 157.76C292.264 155.78 293.749 154.222 295.619 153.085C297.526 151.912 299.671 151.325 302.054 151.325C304.107 151.325 305.922 151.728 307.499 152.535C309.076 153.342 310.322 154.478 311.239 155.945C312.192 157.375 312.706 159.062 312.779 161.005V167.935C312.669 169.842 312.137 171.528 311.184 172.995C310.267 174.425 309.021 175.543 307.444 176.35C305.867 177.157 304.071 177.56 302.054 177.56ZM303.044 172.885C304.657 172.885 306.069 172.537 307.279 171.84C308.526 171.143 309.479 170.172 310.139 168.925C310.799 167.642 311.129 166.157 311.129 164.47C311.129 162.783 310.781 161.317 310.084 160.07C309.424 158.787 308.489 157.797 307.279 157.1C306.069 156.367 304.639 156 302.989 156C301.339 156 299.891 156.367 298.644 157.1C297.397 157.797 296.407 158.787 295.674 160.07C294.977 161.317 294.629 162.765 294.629 164.415C294.629 166.065 294.977 167.532 295.674 168.815C296.407 170.098 297.397 171.107 298.644 171.84C299.927 172.537 301.394 172.885 303.044 172.885ZM338.525 178V140.93H343.475V178H338.525ZM332.09 156.385V151.875H349.91V156.385H332.09ZM365.888 178.55C363.322 178.55 361.012 177.945 358.958 176.735C356.905 175.525 355.273 173.893 354.063 171.84C352.853 169.75 352.248 167.422 352.248 164.855C352.248 162.325 352.853 160.052 354.063 158.035C355.273 155.982 356.905 154.35 358.958 153.14C361.012 151.93 363.322 151.325 365.888 151.325C368.418 151.325 370.71 151.93 372.763 153.14C374.853 154.313 376.503 155.927 377.713 157.98C378.923 160.033 379.528 162.325 379.528 164.855C379.528 167.422 378.923 169.75 377.713 171.84C376.503 173.893 374.853 175.525 372.763 176.735C370.71 177.945 368.418 178.55 365.888 178.55ZM365.888 173.765C367.538 173.765 369.005 173.38 370.288 172.61C371.572 171.84 372.58 170.795 373.313 169.475C374.047 168.118 374.413 166.578 374.413 164.855C374.413 163.168 374.028 161.665 373.258 160.345C372.525 159.025 371.517 157.998 370.233 157.265C368.987 156.495 367.538 156.11 365.888 156.11C364.238 156.11 362.772 156.495 361.488 157.265C360.205 157.998 359.197 159.025 358.463 160.345C357.73 161.665 357.363 163.168 357.363 164.855C357.363 166.578 357.73 168.118 358.463 169.475C359.197 170.795 360.205 171.84 361.488 172.61C362.772 173.38 364.238 173.765 365.888 173.765ZM395.941 189.495C393.264 189.495 390.881 189 388.791 188.01C386.737 187.02 385.087 185.627 383.841 183.83L387.031 180.585C388.094 181.942 389.359 182.968 390.826 183.665C392.292 184.398 394.034 184.765 396.051 184.765C398.727 184.765 400.836 184.05 402.376 182.62C403.952 181.227 404.741 179.338 404.741 176.955V170.465L405.621 164.58L404.741 158.75V151.875H409.691V176.955C409.691 179.448 409.104 181.63 407.931 183.5C406.794 185.37 405.181 186.837 403.091 187.9C401.037 188.963 398.654 189.495 395.941 189.495ZM395.941 177.56C393.557 177.56 391.412 176.992 389.506 175.855C387.636 174.718 386.151 173.16 385.051 171.18C383.951 169.163 383.401 166.908 383.401 164.415C383.401 161.922 383.951 159.703 385.051 157.76C386.151 155.78 387.636 154.222 389.506 153.085C391.412 151.912 393.557 151.325 395.941 151.325C397.994 151.325 399.809 151.728 401.386 152.535C402.962 153.342 404.209 154.478 405.126 155.945C406.079 157.375 406.592 159.062 406.666 161.005V167.935C406.556 169.842 406.024 171.528 405.071 172.995C404.154 174.425 402.907 175.543 401.331 176.35C399.754 177.157 397.957 177.56 395.941 177.56ZM396.931 172.885C398.544 172.885 399.956 172.537 401.166 171.84C402.412 171.143 403.366 170.172 404.026 168.925C404.686 167.642 405.016 166.157 405.016 164.47C405.016 162.783 404.667 161.317 403.971 160.07C403.311 158.787 402.376 157.797 401.166 157.1C399.956 156.367 398.526 156 396.876 156C395.226 156 393.777 156.367 392.531 157.1C391.284 157.797 390.294 158.787 389.561 160.07C388.864 161.317 388.516 162.765 388.516 164.415C388.516 166.065 388.864 167.532 389.561 168.815C390.294 170.098 391.284 171.107 392.531 171.84C393.814 172.537 395.281 172.885 396.931 172.885ZM429.056 178.55C426.453 178.55 424.106 177.963 422.016 176.79C419.926 175.58 418.276 173.948 417.066 171.895C415.856 169.842 415.251 167.513 415.251 164.91C415.251 162.343 415.838 160.033 417.011 157.98C418.221 155.927 419.835 154.313 421.851 153.14C423.905 151.93 426.196 151.325 428.726 151.325C431.146 151.325 433.273 151.875 435.106 152.975C436.976 154.075 438.425 155.597 439.451 157.54C440.515 159.483 441.046 161.683 441.046 164.14C441.046 164.507 441.028 164.91 440.991 165.35C440.955 165.753 440.881 166.23 440.771 166.78H418.716V162.655H438.131L436.316 164.25C436.316 162.49 436.005 161.005 435.381 159.795C434.758 158.548 433.878 157.595 432.741 156.935C431.605 156.238 430.23 155.89 428.616 155.89C426.93 155.89 425.445 156.257 424.161 156.99C422.878 157.723 421.888 158.75 421.191 160.07C420.495 161.39 420.146 162.948 420.146 164.745C420.146 166.578 420.513 168.192 421.246 169.585C421.98 170.942 423.025 172.005 424.381 172.775C425.738 173.508 427.296 173.875 429.056 173.875C430.523 173.875 431.861 173.618 433.071 173.105C434.318 172.592 435.381 171.822 436.261 170.795L439.451 174.04C438.205 175.507 436.665 176.625 434.831 177.395C433.035 178.165 431.11 178.55 429.056 178.55ZM449.653 178V140.93H454.603V178H449.653ZM443.218 156.385V151.875H461.038V156.385H443.218ZM484.367 178V162.765C484.367 160.785 483.744 159.153 482.497 157.87C481.25 156.587 479.637 155.945 477.657 155.945C476.337 155.945 475.164 156.238 474.137 156.825C473.11 157.412 472.304 158.218 471.717 159.245C471.13 160.272 470.837 161.445 470.837 162.765L468.802 161.61C468.802 159.63 469.242 157.87 470.122 156.33C471.002 154.79 472.23 153.58 473.807 152.7C475.384 151.783 477.162 151.325 479.142 151.325C481.122 151.325 482.864 151.765 484.367 152.645C485.907 153.525 487.117 154.753 487.997 156.33C488.877 157.907 489.317 159.722 489.317 161.775V178H484.367ZM465.887 178V138.73H470.837V178H465.887ZM508.119 178.55C505.515 178.55 503.169 177.963 501.079 176.79C498.989 175.58 497.339 173.948 496.129 171.895C494.919 169.842 494.314 167.513 494.314 164.91C494.314 162.343 494.9 160.033 496.074 157.98C497.284 155.927 498.897 154.313 500.914 153.14C502.967 151.93 505.259 151.325 507.789 151.325C510.209 151.325 512.335 151.875 514.169 152.975C516.039 154.075 517.487 155.597 518.514 157.54C519.577 159.483 520.109 161.683 520.109 164.14C520.109 164.507 520.09 164.91 520.054 165.35C520.017 165.753 519.944 166.23 519.834 166.78H497.779V162.655H517.194L515.379 164.25C515.379 162.49 515.067 161.005 514.444 159.795C513.82 158.548 512.94 157.595 511.804 156.935C510.667 156.238 509.292 155.89 507.679 155.89C505.992 155.89 504.507 156.257 503.224 156.99C501.94 157.723 500.95 158.75 500.254 160.07C499.557 161.39 499.209 162.948 499.209 164.745C499.209 166.578 499.575 168.192 500.309 169.585C501.042 170.942 502.087 172.005 503.444 172.775C504.8 173.508 506.359 173.875 508.119 173.875C509.585 173.875 510.924 173.618 512.134 173.105C513.38 172.592 514.444 171.822 515.324 170.795L518.514 174.04C517.267 175.507 515.727 176.625 513.894 177.395C512.097 178.165 510.172 178.55 508.119 178.55ZM525.506 178V151.875H530.456V178H525.506ZM530.456 163.095L528.586 162.27C528.586 158.933 529.356 156.275 530.896 154.295C532.436 152.315 534.654 151.325 537.551 151.325C538.871 151.325 540.063 151.563 541.126 152.04C542.189 152.48 543.179 153.232 544.096 154.295L540.851 157.65C540.301 157.063 539.696 156.642 539.036 156.385C538.376 156.128 537.606 156 536.726 156C534.893 156 533.389 156.587 532.216 157.76C531.043 158.933 530.456 160.712 530.456 163.095ZM548.65 178.55C547.623 178.55 546.761 178.202 546.065 177.505C545.405 176.772 545.075 175.91 545.075 174.92C545.075 173.893 545.405 173.05 546.065 172.39C546.761 171.693 547.623 171.345 548.65 171.345C549.676 171.345 550.52 171.693 551.18 172.39C551.876 173.05 552.225 173.893 552.225 174.92C552.225 175.91 551.876 176.772 551.18 177.505C550.52 178.202 549.676 178.55 548.65 178.55Z" fill="#E27D60"/>
<path d="M3.51 109V70.83H8.68V109H3.51ZM28.15 109V70.83H33.32V109H28.15ZM7.03 91.62V86.89H29.415V91.62H7.03ZM53.398 109.55C50.8313 109.55 48.5213 108.945 46.468 107.735C44.4147 106.525 42.783 104.893 41.573 102.84C40.363 100.75 39.758 98.4217 39.758 95.855C39.758 93.325 40.363 91.0517 41.573 89.035C42.783 86.9817 44.4147 85.35 46.468 84.14C48.5213 82.93 50.8313 82.325 53.398 82.325C55.928 82.325 58.2197 82.93 60.273 84.14C62.363 85.3133 64.013 86.9267 65.223 88.98C66.433 91.0333 67.038 93.325 67.038 95.855C67.038 98.4217 66.433 100.75 65.223 102.84C64.013 104.893 62.363 106.525 60.273 107.735C58.2197 108.945 55.928 109.55 53.398 109.55ZM53.398 104.765C55.048 104.765 56.5147 104.38 57.798 103.61C59.0813 102.84 60.0897 101.795 60.823 100.475C61.5563 99.1183 61.923 97.5783 61.923 95.855C61.923 94.1683 61.538 92.665 60.768 91.345C60.0347 90.025 59.0263 88.9983 57.743 88.265C56.4963 87.495 55.048 87.11 53.398 87.11C51.748 87.11 50.2813 87.495 48.998 88.265C47.7147 88.9983 46.7063 90.025 45.973 91.345C45.2397 92.665 44.873 94.1683 44.873 95.855C44.873 97.5783 45.2397 99.1183 45.973 100.475C46.7063 101.795 47.7147 102.84 48.998 103.61C50.2813 104.38 51.748 104.765 53.398 104.765ZM83.1204 109.55C80.9937 109.55 79.0687 109.073 77.3454 108.12C75.6587 107.13 74.3387 105.773 73.3854 104.05C72.432 102.327 71.9554 100.328 71.9554 98.055V82.875H76.9054V97.835C76.9054 99.265 77.1437 100.512 77.6204 101.575C78.1337 102.602 78.867 103.39 79.8204 103.94C80.7737 104.49 81.892 104.765 83.1754 104.765C85.1187 104.765 86.6404 104.16 87.7404 102.95C88.8404 101.703 89.3904 99.9983 89.3904 97.835V82.875H94.3404V98.055C94.3404 100.328 93.8637 102.327 92.9104 104.05C91.957 105.773 90.637 107.13 88.9504 108.12C87.3004 109.073 85.357 109.55 83.1204 109.55ZM109.28 109.55C107.813 109.55 106.42 109.367 105.1 109C103.816 108.597 102.625 108.047 101.525 107.35C100.425 106.617 99.4714 105.755 98.6647 104.765L101.855 101.575C102.808 102.748 103.908 103.628 105.155 104.215C106.401 104.765 107.795 105.04 109.335 105.04C110.875 105.04 112.066 104.783 112.91 104.27C113.753 103.72 114.175 102.968 114.175 102.015C114.175 101.062 113.826 100.328 113.13 99.815C112.47 99.265 111.608 98.825 110.545 98.495C109.481 98.1283 108.345 97.78 107.135 97.45C105.961 97.0833 104.843 96.625 103.78 96.075C102.716 95.525 101.836 94.7733 101.14 93.82C100.48 92.8667 100.15 91.6017 100.15 90.025C100.15 88.4483 100.535 87.0917 101.305 85.955C102.075 84.7817 103.138 83.8833 104.495 83.26C105.888 82.6367 107.556 82.325 109.5 82.325C111.553 82.325 113.368 82.6917 114.945 83.425C116.558 84.1217 117.878 85.185 118.905 86.615L115.715 89.805C114.981 88.8517 114.065 88.1183 112.965 87.605C111.901 87.0917 110.691 86.835 109.335 86.835C107.905 86.835 106.805 87.0917 106.035 87.605C105.301 88.0817 104.935 88.76 104.935 89.64C104.935 90.52 105.265 91.1983 105.925 91.675C106.585 92.1517 107.446 92.555 108.51 92.885C109.61 93.215 110.746 93.5633 111.92 93.93C113.093 94.26 114.211 94.7183 115.275 95.305C116.338 95.8917 117.2 96.68 117.86 97.67C118.556 98.66 118.905 99.9617 118.905 101.575C118.905 104.032 118.025 105.975 116.265 107.405C114.541 108.835 112.213 109.55 109.28 109.55ZM136.546 109.55C133.943 109.55 131.596 108.963 129.506 107.79C127.416 106.58 125.766 104.948 124.556 102.895C123.346 100.842 122.741 98.5133 122.741 95.91C122.741 93.3433 123.328 91.0333 124.501 88.98C125.711 86.9267 127.325 85.3133 129.341 84.14C131.395 82.93 133.686 82.325 136.216 82.325C138.636 82.325 140.763 82.875 142.596 83.975C144.466 85.075 145.915 86.5967 146.941 88.54C148.005 90.4833 148.536 92.6833 148.536 95.14C148.536 95.5067 148.518 95.91 148.481 96.35C148.445 96.7533 148.371 97.23 148.261 97.78H126.206V93.655H145.621L143.806 95.25C143.806 93.49 143.495 92.005 142.871 90.795C142.248 89.5483 141.368 88.595 140.231 87.935C139.095 87.2383 137.72 86.89 136.106 86.89C134.42 86.89 132.935 87.2567 131.651 87.99C130.368 88.7233 129.378 89.75 128.681 91.07C127.985 92.39 127.636 93.9483 127.636 95.745C127.636 97.5783 128.003 99.1917 128.736 100.585C129.47 101.942 130.515 103.005 131.871 103.775C133.228 104.508 134.786 104.875 136.546 104.875C138.013 104.875 139.351 104.618 140.561 104.105C141.808 103.592 142.871 102.822 143.751 101.795L146.941 105.04C145.695 106.507 144.155 107.625 142.321 108.395C140.525 109.165 138.6 109.55 136.546 109.55ZM153.934 109V82.875H158.884V109H153.934ZM171.589 109V93.215C171.589 91.2717 170.984 89.75 169.774 88.65C168.6 87.5133 167.115 86.945 165.319 86.945C164.109 86.945 163.027 87.2017 162.074 87.715C161.12 88.2283 160.35 88.9433 159.764 89.86C159.177 90.7767 158.884 91.8767 158.884 93.16L156.849 92.17C156.849 90.19 157.27 88.4667 158.114 87C158.994 85.5333 160.185 84.3967 161.689 83.59C163.192 82.7467 164.879 82.325 166.749 82.325C168.582 82.325 170.232 82.7283 171.699 83.535C173.202 84.3417 174.375 85.4783 175.219 86.945C176.099 88.4117 176.539 90.1533 176.539 92.17V109H171.589ZM189.244 109V93.215C189.244 91.2717 188.639 89.75 187.429 88.65C186.255 87.5133 184.789 86.945 183.029 86.945C181.819 86.945 180.719 87.2017 179.729 87.715C178.775 88.2283 178.005 88.9433 177.419 89.86C176.832 90.7767 176.539 91.8767 176.539 93.16L173.734 92.17C173.844 90.1533 174.375 88.43 175.329 87C176.319 85.5333 177.584 84.3967 179.124 83.59C180.664 82.7467 182.35 82.325 184.184 82.325C186.09 82.325 187.795 82.7283 189.299 83.535C190.802 84.3417 191.994 85.4783 192.874 86.945C193.79 88.4117 194.249 90.1717 194.249 92.225V109H189.244ZM212.094 109.55C209.711 109.55 207.548 108.963 205.604 107.79C203.661 106.58 202.121 104.948 200.984 102.895C199.884 100.842 199.334 98.5317 199.334 95.965C199.334 93.3983 199.884 91.0883 200.984 89.035C202.121 86.9817 203.643 85.35 205.549 84.14C207.493 82.93 209.674 82.325 212.094 82.325C214.074 82.325 215.834 82.7467 217.374 83.59C218.951 84.3967 220.216 85.5333 221.169 87C222.123 88.43 222.654 90.0983 222.764 92.005V99.87C222.654 101.74 222.123 103.408 221.169 104.875C220.253 106.342 219.006 107.497 217.429 108.34C215.889 109.147 214.111 109.55 212.094 109.55ZM212.919 104.875C215.376 104.875 217.356 104.05 218.859 102.4C220.363 100.713 221.114 98.5683 221.114 95.965C221.114 94.1683 220.766 92.61 220.069 91.29C219.409 89.9333 218.456 88.8883 217.209 88.155C215.963 87.385 214.514 87 212.864 87C211.214 87 209.748 87.385 208.464 88.155C207.218 88.925 206.228 89.9883 205.494 91.345C204.798 92.665 204.449 94.1867 204.449 95.91C204.449 97.67 204.798 99.2283 205.494 100.585C206.228 101.905 207.236 102.95 208.519 103.72C209.803 104.49 211.269 104.875 212.919 104.875ZM220.784 109V101.96L221.719 95.58L220.784 89.255V82.875H225.789V109H220.784ZM236.904 109V71.93H241.854V109H236.904ZM230.469 87.385V82.875H248.289V87.385H230.469ZM264.432 109.55C261.829 109.55 259.482 108.963 257.392 107.79C255.302 106.58 253.652 104.948 252.442 102.895C251.232 100.842 250.627 98.5133 250.627 95.91C250.627 93.3433 251.214 91.0333 252.387 88.98C253.597 86.9267 255.21 85.3133 257.227 84.14C259.28 82.93 261.572 82.325 264.102 82.325C266.522 82.325 268.649 82.875 270.482 83.975C272.352 85.075 273.8 86.5967 274.827 88.54C275.89 90.4833 276.422 92.6833 276.422 95.14C276.422 95.5067 276.404 95.91 276.367 96.35C276.33 96.7533 276.257 97.23 276.147 97.78H254.092V93.655H273.507L271.692 95.25C271.692 93.49 271.38 92.005 270.757 90.795C270.134 89.5483 269.254 88.595 268.117 87.935C266.98 87.2383 265.605 86.89 263.992 86.89C262.305 86.89 260.82 87.2567 259.537 87.99C258.254 88.7233 257.264 89.75 256.567 91.07C255.87 92.39 255.522 93.9483 255.522 95.745C255.522 97.5783 255.889 99.1917 256.622 100.585C257.355 101.942 258.4 103.005 259.757 103.775C261.114 104.508 262.672 104.875 264.432 104.875C265.899 104.875 267.237 104.618 268.447 104.105C269.694 103.592 270.757 102.822 271.637 101.795L274.827 105.04C273.58 106.507 272.04 107.625 270.207 108.395C268.41 109.165 266.485 109.55 264.432 109.55Z" fill="#2B7A78"/>
</svg>
