<?xml version="1.0"?>
<svg version="1.1" xmlns="http://www.w3.org/2000/svg" width="439" height="150" style=""><path fill="#0ea16d" d="M17.783203125,66.2841796875q-0.09765625-1.2939453125,0.2197265625-2.44140625t1.1962890625-1.904296875t2.978515625-0.7568359375q0.48828125,0,1.1962890625,0.09765625t1.416015625,0.3173828125t1.1474609375,0.6103515625t0.439453125,1.07421875q0,1.806640625,0.1220703125,4.7607421875t0.3173828125,6.15234375t0.3662109375,6.25t0.3173828125,4.9560546875q3.80859375-0.1953125,7.666015625-0.1953125t7.6171875-0.1953125l6.73828125-0.1953125l0-4.833984375q0-8.10546875-0.3173828125-16.2353515625t-1.0986328125-16.2353515625q0-0.5859375,0.48828125-0.9521484375t1.1474609375-0.5615234375t1.3671875-0.244140625t1.0986328125-0.048828125q1.123046875,0,2.4169921875,0.341796875t1.4892578125,1.46484375l0.29296875,2.099609375q1.220703125,8.7890625,1.66015625,17.3828125t0.634765625,17.1875q0.5859375,0.09765625,1.2451171875,0.3173828125t1.3427734375,0.4150390625q0.48828125,0.1953125,1.3916015625,0.5859375t0.9033203125,1.220703125q0,0.78125-0.68359375,1.220703125t-1.5380859375,0.6591796875t-1.66015625,0.2685546875t-1.0009765625,0.048828125q0.09765625,3.61328125,0.09765625,7.2021484375l0,7.2021484375l0,15.771484375l0,8.7890625q0,0.5859375-0.5615234375,1.0498046875t-1.3427734375,0.7568359375t-1.6357421875,0.390625t-1.5380859375,0.09765625t-1.611328125-0.09765625t-1.66015625-0.390625t-1.2939453125-0.732421875t-0.5615234375-1.07421875l0-2.099609375q0.1953125-9.27734375,0.439453125-18.3837890625t0.48828125-18.2861328125q-5.322265625,0.1953125-10.8154296875,0.244140625t-10.9130859375,0.244140625q0.5859375,6.884765625,1.3427734375,13.7451171875t1.5869140625,13.7451171875q0,0.5859375-0.5615234375,1.0498046875t-1.318359375,0.7568359375t-1.611328125,0.390625t-1.5380859375,0.09765625q-1.416015625,0-3.1005859375-0.48828125t-1.8798828125-1.806640625q-0.5859375-5.17578125-1.0986328125-11.42578125t-0.9033203125-12.7685546875t-0.6103515625-12.7685546875t-0.2197265625-11.328125q0-1.220703125-0.09765625-2.5146484375z M72.60107421875,107.71484375q0-2.783203125,0.7080078125-5.7373046875t2.24609375-5.322265625t3.8818359375-3.857421875t5.6640625-1.4892578125q2.490234375,0,5.2490234375,0.8544921875t5.0537109375,2.44140625t3.7353515625,3.8818359375t1.4404296875,5.126953125q0,3.41796875-1.2451171875,6.494140625t-3.4912109375,5.4931640625t-5.2490234375,3.80859375t-6.5185546875,1.3916015625q-2.880859375,0-5.029296875-1.0498046875t-3.5888671875-2.8076171875t-2.1484375-4.150390625t-0.7080078125-5.078125z M79.77880859375,107.6171875q0,0.87890625,0.2685546875,2.587890625t0.8056640625,3.3447265625t1.3916015625,2.83203125t2.0751953125,1.0986328125q2.587890625-0.29296875,4.2724609375-1.6845703125t2.734375-3.3935546875t1.46484375-4.345703125t0.4150390625-4.443359375q0-2.685546875-1.0498046875-4.4921875t-3.4423828125-2.9296875q0,0.09765625,0.09765625,0.09765625t0.09765625-0.09765625l-1.220703125-0.29296875q-0.48828125-0.1953125-1.1962890625-0.439453125t-1.3916015625-1.07421875q-1.904296875,0.68359375-2.9541015625,1.7578125t-1.5869140625,2.6123046875t-0.6591796875,3.6865234375t-0.1220703125,5.17578125z M107.5947265625,102.490234375q0-0.9765625,0.2197265625-2.587890625t0.5126953125-3.1982421875t0.68359375-2.9541015625t0.927734375-1.7578125q0.390625-0.390625,1.3427734375-0.78125t2.001953125-0.5615234375t1.953125,0.146484375t1.0986328125,1.2939453125q-0.68359375,0.87890625-1.2451171875,3.0029296875t-0.8544921875,4.7119140625q-0.244140625,2.197265625-0.244140625,4.541015625l0,0.830078125q0.048828125,2.734375,0.48828125,5.029296875t1.3427734375,3.7841796875t2.5146484375,1.4892578125q3.41796875,0,6.25-3.1494140625t5.029296875-7.6904296875t3.857421875-9.6435546875t2.83203125-8.9111328125q0.29296875-1.123046875,1.3916015625-1.513671875t2.3681640625-0.2685546875t2.2705078125,0.6103515625t1.1962890625,1.171875q-0.9765625,8.203125-1.5380859375,16.40625t-0.5615234375,16.50390625q0,1.611328125,0.146484375,2.9541015625t-0.146484375,2.294921875t-1.2939453125,1.513671875t-3.1982421875,0.5615234375q-0.48828125,0-1.2451171875-0.09765625t-1.5625-0.3173828125t-1.3671875-0.6591796875t-0.5615234375-1.025390625q0-3.61328125,0.2685546875-7.421875t0.7568359375-7.373046875q-1.318359375,1.904296875-2.9052734375,3.7841796875t-3.4912109375,3.3935546875t-4.1015625,2.4169921875t-4.736328125,0.9033203125q-3.61328125,0-5.6884765625-1.708984375t-3.125-4.2724609375t-1.318359375-5.5908203125t-0.2685546875-5.859375z M153.52587890625,94.189453125q0-2.001953125,1.171875-3.4423828125t2.8564453125-2.34375t3.6865234375-1.3427734375t3.7109375-0.439453125q1.318359375,0,3.515625,0.390625t4.296875,1.171875t3.6376953125,2.05078125t1.5380859375,2.978515625q0,0.78125-0.5859375,1.3916015625t-1.220703125,0.6103515625q-1.318359375,0-2.392578125-0.8544921875t-2.2216796875-1.806640625t-2.5146484375-1.806640625t-3.076171875-0.8544921875t-3.1005859375,1.0986328125t-1.3916015625,2.9052734375q0,2.978515625,2.099609375,5.8349609375t4.6142578125,6.005859375t4.6142578125,6.6162109375t2.099609375,7.666015625q0,1.806640625-0.7568359375,3.0517578125t-2.001953125,2.0263671875t-2.8076171875,1.1962890625t-3.02734375,0.4150390625q-1.611328125,0-3.759765625-0.7568359375t-4.052734375-2.001953125t-3.1982421875-2.9052734375t-1.2939453125-3.466796875q0-0.87890625,1.2451171875-1.123046875t1.8310546875-0.244140625q0.29296875,0,0.9033203125,0.1953125t1.1962890625,0.439453125t1.0498046875,0.537109375t0.3662109375,0.634765625q0.48828125,0.5859375,1.4892578125,1.7333984375t2.001953125,1.85546875t1.7578125,0.5126953125t0.7568359375-2.197265625q0-3.80859375-2.05078125-7.0068359375t-4.4677734375-6.25t-4.4677734375-6.0546875t-2.05078125-6.4208984375z M187.93359375,108.7890625q0-3.41796875,0.7568359375-8.056640625t2.5634765625-8.7890625t4.7607421875-7.0556640625t7.4462890625-2.9052734375q4.19921875,0,6.298828125,2.4169921875t2.099609375,6.5185546875q0,2.685546875-1.0009765625,5.8837890625t-2.8564453125,6.0546875t-4.39453125,4.7607421875t-5.6640625,1.904296875l-1.26953125-0.09765625q0,1.318359375,0.390625,3.5400390625t1.1474609375,4.4189453125t1.953125,3.857421875t2.9052734375,1.66015625q2.490234375,0,4.78515625-2.001953125t4.345703125-4.443359375t3.80859375-4.443359375t3.22265625-2.001953125q0.78125,0,1.611328125,0.244140625t0.927734375,1.3671875q0,0.68359375-0.3662109375,1.123046875t-0.6591796875,0.9765625q-1.513671875,2.587890625-3.2958984375,4.931640625t-4.0283203125,4.248046875t-4.9072265625,3.0029296875t-5.8837890625,1.0986328125q-4.19921875,0-6.982421875-1.4892578125t-4.4921875-4.00390625t-2.4658203125-5.810546875t-0.7568359375-6.9091796875z M196.673828125,105.078125l1.3671875,1.220703125q0.9765625,0.87890625,1.953125,0.390625t1.7578125-1.7822265625t1.4404296875-3.1982421875t1.171875-3.90625t0.7568359375-3.90625t0.244140625-3.173828125l0-1.66015625t-0.146484375-1.7578125t-0.5126953125-1.3916015625t-1.1474609375-0.7080078125q-0.244140625-0.048828125-0.439453125-0.048828125q-1.66015625,0-2.83203125,2.099609375q-1.26953125,2.34375-2.05078125,5.6884765625t-1.123046875,6.8603515625t-0.439453125,5.2734375z M228.85986328125,94.5556640625q-0.1220703125-1.6357421875,0.1953125-3.0029296875t1.26953125-2.2216796875t3.0517578125-0.8544921875q0.48828125,0,1.1962890625,0.1220703125t1.3916015625,0.3173828125t1.1474609375,0.5859375t0.4638671875,1.07421875l0,5.517578125q1.904296875-2.197265625,4.150390625-3.1494140625t5.126953125-0.9521484375q2.197265625,0,4.345703125,1.0009765625t4.052734375,2.6611328125t3.2958984375,3.662109375t2.0263671875,4.00390625q0.390625-1.806640625,0.87890625-4.4189453125t1.4404296875-5.0048828125t2.5146484375-4.1015625t4.150390625-1.708984375q2.783203125,0,4.6875,2.001953125t3.1005859375,5.2001953125t1.806640625,7.1533203125t0.9033203125,7.8125t0.29296875,7.2021484375l0,5.2490234375q0,0.5859375-0.439453125,0.9521484375t-1.0986328125,0.5615234375t-1.3671875,0.244140625t-1.0986328125,0.048828125q-1.513671875,0-2.7587890625-0.4638671875t-1.2451171875-2.3681640625l0-4.39453125t-0.09765625-5.6884765625t-0.341796875-6.103515625t-0.634765625-5.5419921875t-1.0009765625-4.00390625t-1.4892578125-1.5625q-1.220703125,0-1.7578125,1.3671875t-0.9033203125,3.466796875t-0.5615234375,4.443359375t-0.537109375,4.443359375t-1.0986328125,3.4423828125t-2.0751953125,1.3427734375q-1.416015625,0-2.490234375-1.3427734375t-2.1240234375-3.3447265625t-2.099609375-4.296875t-2.3193359375-4.296875q-1.26953125-2.05078125-2.734375-3.3203125q-1.318359375-1.220703125-2.978515625-1.171875l-0.244140625,0q-2.197265625,0.09765625-3.4423828125,1.5869140625t-1.904296875,3.6376953125t-0.8056640625,4.6142578125t-0.146484375,4.3212890625q0,1.7578125,0.29296875,4.1015625q0.1953125,1.5625,0.1953125,2.978515625q0,0.732421875-0.048828125,1.416015625q-0.146484375,2.05078125-1.0986328125,3.4423828125t-3.5400390625,1.3916015625q-0.9765625,0-2.44140625-0.1953125t-1.953125-1.318359375q-1.123046875-2.001953125-1.708984375-5.0537109375t-0.87890625-6.298828125t-0.341796875-6.4453125t-0.048828125-5.4931640625q0-1.611328125-0.1220703125-3.2470703125z M290.4404296875,106.787109375q0-3.3203125,0.9033203125-6.396484375t2.7099609375-5.4931640625t4.5166015625-3.857421875t6.2744140625-1.4404296875q2.197265625,0,4.8583984375,0.6591796875t5.0048828125,1.953125t3.90625,3.2958984375t1.5625,4.58984375q0,1.220703125-0.4150390625,1.85546875t-1.6845703125,0.634765625l-0.537109375-0.09765625q1.416015625,3.80859375,2.44140625,7.8125t2.001953125,8.0078125q0.390625,0.78125,0.5859375,1.3916015625t0.1953125,1.1962890625q0,0.78125-0.439453125,1.2939453125t-1.1474609375,0.7568359375t-1.46484375,0.341796875t-1.3427734375,0.09765625q-2.099609375,0-3.1494140625-0.732421875t-1.513671875-2.001953125t-0.5615234375-2.8564453125t-0.390625-3.1982421875q-0.5859375,1.904296875-1.5380859375,3.7109375t-2.24609375,3.2470703125t-3.0517578125,2.294921875t-3.955078125,0.8544921875q-3.22265625,0-5.419921875-1.85546875t-3.5400390625-4.5654296875t-1.953125-5.7861328125t-0.6103515625-5.712890625z M297.3740234375,106.103515625q0,1.806640625,0.244140625,3.80859375t0.8056640625,3.955078125t1.4404296875,3.6865234375t2.197265625,3.0517578125q2.392578125-2.587890625,3.5400390625-6.298828125t2.05078125-7.1533203125t2.05078125-5.908203125t3.5400390625-2.4658203125q1.513671875,0,2.5390625,0.537109375q-0.48828125-1.220703125-1.611328125-2.3681640625t-2.5146484375-2.099609375t-2.880859375-1.5625t-2.8076171875-0.6103515625q-0.390625,0-0.9033203125,0.1220703125t-0.8056640625,0.0244140625q-2.001953125,0.5859375-3.2958984375,2.0263671875t-2.099609375,3.3935546875t-1.1474609375,4.00390625t-0.341796875,3.857421875z M330.75634765625,75.78125q0-0.68359375,1.46484375-1.171875t3.3203125-0.8056640625t3.5888671875-0.4638671875t2.3681640625-0.244140625q0-1.318359375,0.09765625-2.6611328125t0.537109375-2.392578125t1.3916015625-1.6845703125t2.6611328125-0.634765625q1.416015625,0,2.1484375,0.341796875t1.5625,1.416015625q0.1953125,0.5859375,0.1953125,1.123046875l0,1.6357421875t-0.09765625,1.6845703125q1.806640625-0.1953125,3.5888671875-0.4638671875t3.5888671875-0.2685546875q1.318359375,0,1.806640625,0.048828125t0.9765625,1.171875q0.390625,1.123046875-0.9521484375,1.708984375t-3.22265625,0.87890625t-3.7353515625,0.439453125t-2.24609375,0.146484375q-0.5859375,8.3984375-1.1962890625,16.650390625t-0.6103515625,16.748046875q0,3.80859375,0.244140625,7.861328125t1.3671875,7.666015625q0.29296875,1.123046875,0.9765625,2.099609375t0.68359375,2.099609375q0,0.68359375-0.537109375,1.07421875t-1.2939453125,0.6591796875t-1.513671875,0.3173828125t-1.2451171875,0.048828125q-3.076171875,0-4.6875-2.294921875t-2.3193359375-5.4931640625t-0.7568359375-6.5673828125t-0.048828125-5.46875q0-4.296875,0.1708984375-8.7890625t0.4150390625-8.88671875t0.68359375-8.59375t1.025390625-7.8125q-1.708984375,0.1953125-3.3447265625,0.439453125t-3.3447265625,0.244140625q-0.390625,0-1.0498046875-0.048828125t-1.2451171875-0.244140625t-1.0009765625-0.537109375t-0.4150390625-0.9765625z M368.09375,108.7890625q0-3.41796875,0.7568359375-8.056640625t2.5634765625-8.7890625t4.7607421875-7.0556640625t7.4462890625-2.9052734375q4.19921875,0,6.298828125,2.4169921875t2.099609375,6.5185546875q0,2.685546875-1.0009765625,5.8837890625t-2.8564453125,6.0546875t-4.39453125,4.7607421875t-5.6640625,1.904296875l-1.26953125-0.09765625q0,1.318359375,0.390625,3.5400390625t1.1474609375,4.4189453125t1.953125,3.857421875t2.9052734375,1.66015625q2.490234375,0,4.78515625-2.001953125t4.345703125-4.443359375t3.80859375-4.443359375t3.22265625-2.001953125q0.78125,0,1.611328125,0.244140625t0.927734375,1.3671875q0,0.68359375-0.3662109375,1.123046875t-0.6591796875,0.9765625q-1.513671875,2.587890625-3.2958984375,4.931640625t-4.0283203125,4.248046875t-4.9072265625,3.0029296875t-5.8837890625,1.0986328125q-4.19921875,0-6.982421875-1.4892578125t-4.4921875-4.00390625t-2.4658203125-5.810546875t-0.7568359375-6.9091796875z M376.833984375,105.078125l1.3671875,1.220703125q0.9765625,0.87890625,1.953125,0.390625t1.7578125-1.7822265625t1.4404296875-3.1982421875t1.171875-3.90625t0.7568359375-3.90625t0.244140625-3.173828125l0-1.66015625t-0.146484375-1.7578125t-0.5126953125-1.3916015625t-1.1474609375-0.7080078125q-0.244140625-0.048828125-0.439453125-0.048828125q-1.66015625,0-2.83203125,2.099609375q-1.26953125,2.34375-2.05078125,5.6884765625t-1.123046875,6.8603515625t-0.439453125,5.2734375z"/><path fill="#" d=""/></svg>
