<svg width="107" height="16" viewBox="0 0 107 16" fill="none" xmlns="http://www.w3.org/2000/svg">
<path d="M9.66406 15H6.94922V8.83789H2.92578V15H0.201172V0.78125H2.92578V6.61133H6.94922V0.78125H9.66406V15ZM12.0176 9.61914C12.0176 8.85091 12.1283 8.14128 12.3496 7.49023C12.571 6.83268 12.8965 6.26302 13.3262 5.78125C13.7493 5.29948 14.2669 4.92188 14.8789 4.64844C15.4974 4.375 16.2038 4.23828 16.998 4.23828C17.7923 4.23828 18.4987 4.375 19.1172 4.64844C19.7357 4.92188 20.2598 5.29948 20.6895 5.78125C21.1126 6.26302 21.4349 6.83268 21.6562 7.49023C21.8776 8.14128 21.9883 8.85091 21.9883 9.61914V9.82422C21.9883 10.599 21.8776 11.3151 21.6562 11.9727C21.4349 12.6237 21.1126 13.1901 20.6895 13.6719C20.2663 14.1536 19.7454 14.5312 19.127 14.8047C18.5085 15.0716 17.8053 15.2051 17.0176 15.2051C16.2233 15.2051 15.5137 15.0716 14.8887 14.8047C14.2702 14.5312 13.7493 14.1536 13.3262 13.6719C12.8965 13.1901 12.571 12.6237 12.3496 11.9727C12.1283 11.3151 12.0176 10.599 12.0176 9.82422V9.61914ZM14.7324 9.82422C14.7324 10.2669 14.7747 10.6836 14.8594 11.0742C14.944 11.4583 15.0775 11.7936 15.2598 12.0801C15.4421 12.373 15.6764 12.6042 15.9629 12.7734C16.2559 12.9427 16.6074 13.0273 17.0176 13.0273C17.4147 13.0273 17.7565 12.9427 18.043 12.7734C18.3294 12.6042 18.5638 12.373 18.7461 12.0801C18.9219 11.7936 19.0521 11.4583 19.1367 11.0742C19.2214 10.6836 19.2637 10.2669 19.2637 9.82422V9.61914C19.2637 9.18945 19.2214 8.78255 19.1367 8.39844C19.0521 8.01432 18.9219 7.67578 18.7461 7.38281C18.5638 7.08984 18.3294 6.85872 18.043 6.68945C17.7565 6.52018 17.4082 6.43555 16.998 6.43555C16.5944 6.43555 16.2493 6.52018 15.9629 6.68945C15.6764 6.85872 15.4421 7.08984 15.2598 7.38281C15.0775 7.67578 14.944 8.01432 14.8594 8.39844C14.7747 8.78255 14.7324 9.18945 14.7324 9.61914V9.82422ZM31.2949 15L31.1387 13.5156C30.7806 14.043 30.3477 14.4564 29.8398 14.7559C29.3385 15.0553 28.7884 15.2051 28.1895 15.2051C27.6426 15.2051 27.1413 15.1204 26.6855 14.9512C26.2298 14.7819 25.8392 14.5117 25.5137 14.1406C25.1882 13.776 24.9342 13.3105 24.752 12.7441C24.5762 12.1712 24.4883 11.4844 24.4883 10.6836V4.43359H27.2031V10.7031C27.2031 11.1328 27.2324 11.4941 27.291 11.7871C27.3561 12.0801 27.457 12.3145 27.5938 12.4902C27.7305 12.6725 27.9095 12.8027 28.1309 12.8809C28.3522 12.959 28.6224 12.998 28.9414 12.998C29.2279 12.998 29.485 12.9688 29.7129 12.9102C29.9473 12.8516 30.1523 12.7669 30.3281 12.6562C30.4779 12.5586 30.6113 12.4414 30.7285 12.3047C30.8457 12.168 30.9466 12.015 31.0312 11.8457V4.43359H33.7559V15H31.2949ZM43.2285 12.0996C43.2285 11.9368 43.1895 11.7936 43.1113 11.6699C43.0397 11.5462 42.9095 11.429 42.7207 11.3184C42.5254 11.2142 42.2682 11.1165 41.9492 11.0254C41.6302 10.9342 41.2266 10.8431 40.7383 10.752C40.1198 10.6283 39.5534 10.4753 39.0391 10.293C38.5312 10.1042 38.0951 9.8763 37.7305 9.60938C37.3659 9.34896 37.0794 9.04622 36.8711 8.70117C36.6693 8.35612 36.5684 7.95898 36.5684 7.50977C36.5684 7.07357 36.6725 6.6569 36.8809 6.25977C37.0892 5.86263 37.3887 5.51432 37.7793 5.21484C38.1699 4.91536 38.6452 4.67773 39.2051 4.50195C39.765 4.32617 40.3965 4.23828 41.0996 4.23828C41.8353 4.23828 42.4961 4.32617 43.082 4.50195C43.668 4.67122 44.166 4.9056 44.5762 5.20508C44.9798 5.51107 45.2891 5.8724 45.5039 6.28906C45.7188 6.70573 45.8262 7.1582 45.8262 7.64648H43.1113C43.1113 7.4707 43.082 7.30794 43.0234 7.1582C42.9648 7.00195 42.877 6.86198 42.7598 6.73828C42.597 6.57552 42.3757 6.44531 42.0957 6.34766C41.8223 6.25 41.4902 6.20117 41.0996 6.20117C40.7676 6.20117 40.4779 6.23372 40.2305 6.29883C39.9831 6.36393 39.7812 6.45508 39.625 6.57227C39.4818 6.67643 39.3711 6.80013 39.293 6.94336C39.2214 7.08008 39.1855 7.22656 39.1855 7.38281C39.1855 7.53906 39.2181 7.68555 39.2832 7.82227C39.3483 7.95247 39.4655 8.06966 39.6348 8.17383C39.7975 8.28451 40.0221 8.38542 40.3086 8.47656C40.5951 8.5612 40.9596 8.63607 41.4023 8.70117C42.0404 8.80534 42.6328 8.9388 43.1797 9.10156C43.7266 9.26432 44.1986 9.47266 44.5957 9.72656C44.9928 9.98698 45.3021 10.3027 45.5234 10.6738C45.7513 11.0384 45.8652 11.4746 45.8652 11.9824C45.8652 12.4512 45.7513 12.8841 45.5234 13.2812C45.3021 13.6719 44.9863 14.0104 44.5762 14.2969C44.1595 14.5833 43.6582 14.8079 43.0723 14.9707C42.4863 15.127 41.832 15.2051 41.1094 15.2051C40.3151 15.2051 39.612 15.1009 39 14.8926C38.3945 14.6842 37.8867 14.4108 37.4766 14.0723C37.0664 13.7402 36.7539 13.3626 36.5391 12.9395C36.3307 12.5098 36.2266 12.0801 36.2266 11.6504H38.8145C38.834 11.9368 38.9121 12.1842 39.0488 12.3926C39.1855 12.5944 39.3613 12.7572 39.5762 12.8809C39.791 13.0111 40.0352 13.1055 40.3086 13.1641C40.5885 13.2227 40.875 13.252 41.168 13.252C41.5195 13.252 41.8255 13.2227 42.0859 13.1641C42.3529 13.099 42.571 13.0143 42.7402 12.9102C42.903 12.806 43.0234 12.6855 43.1016 12.5488C43.1862 12.4121 43.2285 12.2624 43.2285 12.0996ZM53.5508 15.1953C52.737 15.1953 51.998 15.0618 51.334 14.7949C50.6699 14.528 50.1003 14.1634 49.625 13.7012C49.1497 13.2454 48.7819 12.7083 48.5215 12.0898C48.2676 11.4648 48.1406 10.7975 48.1406 10.0879V9.69727C48.1406 8.88997 48.2676 8.1543 48.5215 7.49023C48.7754 6.81966 49.1302 6.24349 49.5859 5.76172C50.0417 5.27995 50.582 4.9056 51.207 4.63867C51.832 4.37174 52.5124 4.23828 53.248 4.23828C54.0098 4.23828 54.6868 4.36523 55.2793 4.61914C55.8783 4.86654 56.3861 5.2181 56.8027 5.67383C57.2129 6.12956 57.5254 6.67969 57.7402 7.32422C57.9551 7.96224 58.0625 8.66862 58.0625 9.44336V10.5957H50.8945V10.625C50.9857 11.0482 51.1029 11.39 51.2461 11.6504C51.3893 11.9043 51.5814 12.1354 51.8223 12.3438C52.0697 12.5586 52.3529 12.7246 52.6719 12.8418C52.9909 12.959 53.3392 13.0176 53.7168 13.0176C54.2507 13.0176 54.7682 12.9167 55.2695 12.7148C55.7708 12.513 56.1777 12.2103 56.4902 11.8066L57.8477 13.2715C57.5026 13.7598 56.9557 14.2025 56.207 14.5996C55.4583 14.9967 54.5729 15.1953 53.5508 15.1953ZM53.2285 6.43555C52.9225 6.43555 52.6426 6.49089 52.3887 6.60156C52.1348 6.70573 51.9134 6.85872 51.7246 7.06055C51.5293 7.26237 51.3665 7.50326 51.2363 7.7832C51.1061 8.06315 51.0085 8.37565 50.9434 8.7207H55.3965V8.50586C55.3965 8.2194 55.3444 7.94922 55.2402 7.69531C55.1361 7.44141 54.9928 7.22005 54.8105 7.03125C54.6283 6.84896 54.4036 6.70573 54.1367 6.60156C53.8763 6.49089 53.5736 6.43555 53.2285 6.43555ZM62.125 4.43359L62.2031 5.71289C62.4049 5.25716 62.6816 4.89909 63.0332 4.63867C63.3913 4.37174 63.8242 4.23828 64.332 4.23828C64.5794 4.23828 64.8008 4.26758 64.9961 4.32617C65.1914 4.38477 65.3607 4.47591 65.5039 4.59961C65.6146 4.69076 65.709 4.80143 65.7871 4.93164C65.8717 5.05534 65.9434 5.19857 66.002 5.36133C66.0931 5.20508 66.194 5.0651 66.3047 4.94141C66.4219 4.8112 66.5488 4.70052 66.6855 4.60938C66.8548 4.49219 67.0469 4.40104 67.2617 4.33594C67.4766 4.27083 67.7109 4.23828 67.9648 4.23828C68.2839 4.23828 68.5801 4.29688 68.8535 4.41406C69.1335 4.53125 69.3776 4.7168 69.5859 4.9707C69.7878 5.23112 69.944 5.56641 70.0547 5.97656C70.1719 6.38021 70.2305 6.875 70.2305 7.46094V15H67.7598V7.45117C67.7598 7.24935 67.737 7.08333 67.6914 6.95312C67.6523 6.82292 67.597 6.71875 67.5254 6.64062C67.4538 6.56901 67.3691 6.52018 67.2715 6.49414C67.1803 6.46159 67.0859 6.44531 66.9883 6.44531C66.8841 6.44531 66.7897 6.45833 66.7051 6.48438C66.627 6.51042 66.5521 6.54622 66.4805 6.5918C66.4219 6.63737 66.3698 6.68945 66.3242 6.74805C66.2786 6.80013 66.2396 6.86198 66.207 6.93359C66.207 6.94661 66.207 6.97591 66.207 7.02148C66.207 7.06706 66.207 7.12891 66.207 7.20703V15H63.8145V7.44141C63.8145 7.23958 63.7949 7.07357 63.7559 6.94336C63.7168 6.81315 63.6647 6.71224 63.5996 6.64062C63.528 6.56901 63.4466 6.52018 63.3555 6.49414C63.2643 6.46159 63.1667 6.44531 63.0625 6.44531C62.9453 6.44531 62.8411 6.46484 62.75 6.50391C62.6589 6.54297 62.5775 6.59831 62.5059 6.66992C62.4538 6.72201 62.4082 6.78385 62.3691 6.85547C62.3301 6.92708 62.2943 7.00521 62.2617 7.08984V15H59.791V4.43359H62.125ZM79.0488 15C78.9837 14.8698 78.9284 14.7201 78.8828 14.5508C78.8372 14.3815 78.7982 14.2025 78.7656 14.0137C78.6159 14.1764 78.4434 14.3294 78.248 14.4727C78.0527 14.6159 77.8379 14.7396 77.6035 14.8438C77.3626 14.9544 77.099 15.0391 76.8125 15.0977C76.526 15.1628 76.2168 15.1953 75.8848 15.1953C75.3444 15.1953 74.8464 15.1172 74.3906 14.9609C73.9414 14.8047 73.554 14.5866 73.2285 14.3066C72.903 14.0267 72.6491 13.6947 72.4668 13.3105C72.2845 12.9199 72.1934 12.4967 72.1934 12.041C72.1934 11.4551 72.3073 10.9375 72.5352 10.4883C72.763 10.0326 73.1048 9.6582 73.5605 9.36523C73.9707 9.09831 74.4753 8.89648 75.0742 8.75977C75.6797 8.61654 76.373 8.54492 77.1543 8.54492H78.668V7.91992C78.668 7.67253 78.6289 7.45117 78.5508 7.25586C78.4727 7.05404 78.3555 6.88151 78.1992 6.73828C78.0365 6.58854 77.8314 6.47461 77.584 6.39648C77.3431 6.31185 77.0599 6.26953 76.7344 6.26953C76.4479 6.26953 76.2005 6.30534 75.9922 6.37695C75.7839 6.44206 75.6146 6.53646 75.4844 6.66016C75.3672 6.77083 75.2793 6.9043 75.2207 7.06055C75.1686 7.2168 75.1426 7.38932 75.1426 7.57812H72.4277C72.4277 7.12891 72.5254 6.70247 72.7207 6.29883C72.9225 5.89518 73.2155 5.54036 73.5996 5.23438C73.9772 4.92839 74.4395 4.6875 74.9863 4.51172C75.5397 4.32943 76.1712 4.23828 76.8809 4.23828C77.5189 4.23828 78.1113 4.31641 78.6582 4.47266C79.2116 4.62891 79.6901 4.86003 80.0938 5.16602C80.4974 5.47201 80.8132 5.85938 81.041 6.32812C81.2689 6.79036 81.3828 7.32747 81.3828 7.93945V12.4707C81.3828 13.0371 81.4186 13.5059 81.4902 13.877C81.5618 14.248 81.666 14.5671 81.8027 14.834V15H79.0488ZM76.4609 13.0957C76.7344 13.0957 76.9883 13.0632 77.2227 12.998C77.457 12.9329 77.6686 12.8483 77.8574 12.7441C78.0462 12.64 78.209 12.5228 78.3457 12.3926C78.4824 12.2559 78.5898 12.1191 78.668 11.9824V10.166H77.2812C76.8581 10.166 76.4967 10.2083 76.1973 10.293C75.8978 10.3711 75.6536 10.4818 75.4648 10.625C75.276 10.7747 75.1361 10.9538 75.0449 11.1621C74.9538 11.3639 74.9082 11.5853 74.9082 11.8262C74.9082 12.015 74.9408 12.1908 75.0059 12.3535C75.0775 12.5098 75.1784 12.6432 75.3086 12.7539C75.4388 12.8581 75.5983 12.9427 75.7871 13.0078C75.9824 13.0664 76.207 13.0957 76.4609 13.0957ZM89.4395 1.8457V4.43359H93.3848V6.43555H89.4395V10.9766C89.4395 11.3607 89.4818 11.6829 89.5664 11.9434C89.6576 12.1973 89.7845 12.3991 89.9473 12.5488C90.11 12.7051 90.3053 12.8158 90.5332 12.8809C90.7676 12.946 91.028 12.9785 91.3145 12.9785C91.5228 12.9785 91.7344 12.9688 91.9492 12.9492C92.1706 12.9297 92.3822 12.9036 92.584 12.8711C92.7793 12.8451 92.9616 12.8158 93.1309 12.7832C93.3066 12.7507 93.4564 12.7181 93.5801 12.6855L93.8438 14.5508C93.6549 14.6615 93.4336 14.7591 93.1797 14.8438C92.9258 14.9219 92.6556 14.987 92.3691 15.0391C92.0827 15.0911 91.7832 15.1302 91.4707 15.1562C91.1647 15.1888 90.862 15.2051 90.5625 15.2051C89.9831 15.2051 89.4557 15.1302 88.9805 14.9805C88.5117 14.8242 88.1113 14.5833 87.7793 14.2578C87.4408 13.9388 87.1803 13.5319 86.998 13.0371C86.8158 12.5358 86.7246 11.9368 86.7246 11.2402V6.43555H84.3125V4.43359H86.7246V1.8457H89.4395ZM101.598 15.1953C100.784 15.1953 100.045 15.0618 99.3809 14.7949C98.7168 14.528 98.1471 14.1634 97.6719 13.7012C97.1966 13.2454 96.8288 12.7083 96.5684 12.0898C96.3145 11.4648 96.1875 10.7975 96.1875 10.0879V9.69727C96.1875 8.88997 96.3145 8.1543 96.5684 7.49023C96.8223 6.81966 97.1771 6.24349 97.6328 5.76172C98.0885 5.27995 98.6289 4.9056 99.2539 4.63867C99.8789 4.37174 100.559 4.23828 101.295 4.23828C102.057 4.23828 102.734 4.36523 103.326 4.61914C103.925 4.86654 104.433 5.2181 104.85 5.67383C105.26 6.12956 105.572 6.67969 105.787 7.32422C106.002 7.96224 106.109 8.66862 106.109 9.44336V10.5957H98.9414V10.625C99.0326 11.0482 99.1497 11.39 99.293 11.6504C99.4362 11.9043 99.6283 12.1354 99.8691 12.3438C100.117 12.5586 100.4 12.7246 100.719 12.8418C101.038 12.959 101.386 13.0176 101.764 13.0176C102.298 13.0176 102.815 12.9167 103.316 12.7148C103.818 12.513 104.225 12.2103 104.537 11.8066L105.895 13.2715C105.549 13.7598 105.003 14.2025 104.254 14.5996C103.505 14.9967 102.62 15.1953 101.598 15.1953ZM101.275 6.43555C100.969 6.43555 100.689 6.49089 100.436 6.60156C100.182 6.70573 99.9603 6.85872 99.7715 7.06055C99.5762 7.26237 99.4134 7.50326 99.2832 7.7832C99.153 8.06315 99.0553 8.37565 98.9902 8.7207H103.443V8.50586C103.443 8.2194 103.391 7.94922 103.287 7.69531C103.183 7.44141 103.04 7.22005 102.857 7.03125C102.675 6.84896 102.451 6.70573 102.184 6.60156C101.923 6.49089 101.62 6.43555 101.275 6.43555Z" fill="#2B7A78"/>
</svg>
